<mxfile host="app.diagrams.net" modified="2021-07-23T01:03:04.054Z" agent="5.0 (X11; Linux x86_64) AppleWebKit/537.36 (KHTML, like Gecko) Chrome/91.0.4472.106 Safari/537.36" etag="3RG7wiXE_g9lMsoKykA3" version="14.9.1" type="github">
  <diagram id="C5RBs43oDa-KdzZeNtuy" name="Page-1">
    <mxGraphModel dx="1357" dy="720" grid="1" gridSize="10" guides="1" tooltips="1" connect="1" arrows="1" fold="1" page="1" pageScale="1" pageWidth="827" pageHeight="1169" math="0" shadow="0">
      <root>
        <mxCell id="WIyWlLk6GJQsqaUBKTNV-0" />
        <mxCell id="WIyWlLk6GJQsqaUBKTNV-1" parent="WIyWlLk6GJQsqaUBKTNV-0" />
        <mxCell id="0BW1OnPK2yhxdBp5YWeg-11" style="edgeStyle=orthogonalEdgeStyle;curved=1;rounded=0;orthogonalLoop=1;jettySize=auto;html=1;exitX=0.5;exitY=0;exitDx=0;exitDy=0;entryX=0;entryY=0.5;entryDx=0;entryDy=0;" edge="1" parent="WIyWlLk6GJQsqaUBKTNV-1" source="WIyWlLk6GJQsqaUBKTNV-3" target="0BW1OnPK2yhxdBp5YWeg-0">
          <mxGeometry relative="1" as="geometry" />
        </mxCell>
        <mxCell id="0BW1OnPK2yhxdBp5YWeg-21" style="edgeStyle=orthogonalEdgeStyle;curved=1;rounded=0;orthogonalLoop=1;jettySize=auto;html=1;exitX=1;exitY=0.5;exitDx=0;exitDy=0;entryX=0;entryY=0.5;entryDx=0;entryDy=0;endArrow=none;endFill=0;" edge="1" parent="WIyWlLk6GJQsqaUBKTNV-1" source="WIyWlLk6GJQsqaUBKTNV-3" target="0BW1OnPK2yhxdBp5YWeg-6">
          <mxGeometry relative="1" as="geometry" />
        </mxCell>
        <mxCell id="WIyWlLk6GJQsqaUBKTNV-3" value="&lt;font style=&quot;font-size: 14px&quot;&gt;Real world&lt;br&gt;experiment&lt;/font&gt;" style="rounded=1;whiteSpace=wrap;html=1;fontSize=12;glass=0;strokeWidth=1;shadow=0;fillColor=#fff2cc;strokeColor=#d6b656;" parent="WIyWlLk6GJQsqaUBKTNV-1" vertex="1">
          <mxGeometry x="90" y="225" width="120" height="40" as="geometry" />
        </mxCell>
        <mxCell id="0BW1OnPK2yhxdBp5YWeg-12" style="edgeStyle=orthogonalEdgeStyle;curved=1;rounded=0;orthogonalLoop=1;jettySize=auto;html=1;exitX=1;exitY=0.5;exitDx=0;exitDy=0;entryX=0;entryY=0.5;entryDx=0;entryDy=0;" edge="1" parent="WIyWlLk6GJQsqaUBKTNV-1" source="0BW1OnPK2yhxdBp5YWeg-0" target="0BW1OnPK2yhxdBp5YWeg-1">
          <mxGeometry relative="1" as="geometry" />
        </mxCell>
        <mxCell id="0BW1OnPK2yhxdBp5YWeg-0" value="&lt;font style=&quot;font-size: 14px&quot;&gt;The problem&lt;/font&gt;" style="rounded=1;whiteSpace=wrap;html=1;fontSize=12;glass=0;strokeWidth=1;shadow=0;fillColor=#fff2cc;strokeColor=#d6b656;" vertex="1" parent="WIyWlLk6GJQsqaUBKTNV-1">
          <mxGeometry x="220" y="130" width="120" height="40" as="geometry" />
        </mxCell>
        <mxCell id="0BW1OnPK2yhxdBp5YWeg-13" style="edgeStyle=orthogonalEdgeStyle;curved=1;rounded=0;orthogonalLoop=1;jettySize=auto;html=1;exitX=1;exitY=0.5;exitDx=0;exitDy=0;entryX=0.5;entryY=0;entryDx=0;entryDy=0;" edge="1" parent="WIyWlLk6GJQsqaUBKTNV-1" source="0BW1OnPK2yhxdBp5YWeg-1" target="0BW1OnPK2yhxdBp5YWeg-2">
          <mxGeometry relative="1" as="geometry" />
        </mxCell>
        <mxCell id="0BW1OnPK2yhxdBp5YWeg-18" style="edgeStyle=orthogonalEdgeStyle;curved=1;rounded=0;orthogonalLoop=1;jettySize=auto;html=1;exitX=0.5;exitY=1;exitDx=0;exitDy=0;entryX=0.5;entryY=0;entryDx=0;entryDy=0;endArrow=none;endFill=0;" edge="1" parent="WIyWlLk6GJQsqaUBKTNV-1" source="0BW1OnPK2yhxdBp5YWeg-1" target="0BW1OnPK2yhxdBp5YWeg-7">
          <mxGeometry relative="1" as="geometry" />
        </mxCell>
        <mxCell id="0BW1OnPK2yhxdBp5YWeg-1" value="&lt;font style=&quot;font-size: 14px&quot;&gt;&lt;b&gt;1. &lt;/b&gt;Conceptual model&lt;br&gt;&lt;b&gt;2. &lt;/b&gt;Mathematical model&lt;/font&gt;" style="rounded=1;whiteSpace=wrap;html=1;fontSize=12;glass=0;strokeWidth=1;shadow=0;fillColor=#fff2cc;strokeColor=#d6b656;align=left;" vertex="1" parent="WIyWlLk6GJQsqaUBKTNV-1">
          <mxGeometry x="396" y="120" width="156" height="60" as="geometry" />
        </mxCell>
        <mxCell id="0BW1OnPK2yhxdBp5YWeg-14" style="edgeStyle=orthogonalEdgeStyle;curved=1;rounded=0;orthogonalLoop=1;jettySize=auto;html=1;exitX=0.5;exitY=1;exitDx=0;exitDy=0;entryX=1;entryY=0.4;entryDx=0;entryDy=0;entryPerimeter=0;" edge="1" parent="WIyWlLk6GJQsqaUBKTNV-1" source="0BW1OnPK2yhxdBp5YWeg-2" target="0BW1OnPK2yhxdBp5YWeg-30">
          <mxGeometry relative="1" as="geometry">
            <mxPoint x="560" y="435" as="targetPoint" />
          </mxGeometry>
        </mxCell>
        <mxCell id="0BW1OnPK2yhxdBp5YWeg-25" style="edgeStyle=orthogonalEdgeStyle;curved=1;rounded=0;orthogonalLoop=1;jettySize=auto;html=1;exitX=0;exitY=0.5;exitDx=0;exitDy=0;entryX=1;entryY=0.5;entryDx=0;entryDy=0;endArrow=none;endFill=0;" edge="1" parent="WIyWlLk6GJQsqaUBKTNV-1" source="0BW1OnPK2yhxdBp5YWeg-2" target="0BW1OnPK2yhxdBp5YWeg-7">
          <mxGeometry relative="1" as="geometry" />
        </mxCell>
        <mxCell id="0BW1OnPK2yhxdBp5YWeg-2" value="&lt;font style=&quot;font-size: 14px&quot;&gt;&lt;b&gt;1. &lt;/b&gt;Simulation program&lt;br&gt;&lt;b&gt;2. &lt;/b&gt;Algorithm development&lt;/font&gt;" style="rounded=1;whiteSpace=wrap;html=1;fontSize=12;glass=0;strokeWidth=1;shadow=0;fillColor=#fff2cc;strokeColor=#d6b656;align=left;" vertex="1" parent="WIyWlLk6GJQsqaUBKTNV-1">
          <mxGeometry x="603" y="250" width="170" height="70" as="geometry" />
        </mxCell>
        <mxCell id="0BW1OnPK2yhxdBp5YWeg-16" style="edgeStyle=orthogonalEdgeStyle;curved=1;rounded=0;orthogonalLoop=1;jettySize=auto;html=1;exitX=0;exitY=0.5;exitDx=0;exitDy=0;exitPerimeter=0;" edge="1" parent="WIyWlLk6GJQsqaUBKTNV-1" source="0BW1OnPK2yhxdBp5YWeg-26" target="0BW1OnPK2yhxdBp5YWeg-27">
          <mxGeometry relative="1" as="geometry">
            <mxPoint x="170" y="455" as="sourcePoint" />
            <mxPoint x="110" y="420" as="targetPoint" />
          </mxGeometry>
        </mxCell>
        <mxCell id="0BW1OnPK2yhxdBp5YWeg-23" style="edgeStyle=orthogonalEdgeStyle;curved=1;rounded=0;orthogonalLoop=1;jettySize=auto;html=1;exitX=0.5;exitY=0;exitDx=0;exitDy=0;entryX=0.5;entryY=1;entryDx=0;entryDy=0;endArrow=none;endFill=0;" edge="1" parent="WIyWlLk6GJQsqaUBKTNV-1" target="0BW1OnPK2yhxdBp5YWeg-6">
          <mxGeometry relative="1" as="geometry">
            <mxPoint x="280" y="415" as="sourcePoint" />
          </mxGeometry>
        </mxCell>
        <mxCell id="0BW1OnPK2yhxdBp5YWeg-24" style="edgeStyle=orthogonalEdgeStyle;curved=1;rounded=0;orthogonalLoop=1;jettySize=auto;html=1;exitX=0.5;exitY=0;exitDx=0;exitDy=0;entryX=0.5;entryY=1;entryDx=0;entryDy=0;endArrow=none;endFill=0;" edge="1" parent="WIyWlLk6GJQsqaUBKTNV-1" target="0BW1OnPK2yhxdBp5YWeg-7">
          <mxGeometry relative="1" as="geometry">
            <mxPoint x="280" y="415" as="sourcePoint" />
          </mxGeometry>
        </mxCell>
        <mxCell id="0BW1OnPK2yhxdBp5YWeg-17" style="edgeStyle=orthogonalEdgeStyle;curved=1;rounded=0;orthogonalLoop=1;jettySize=auto;html=1;exitX=0.5;exitY=0;exitDx=0;exitDy=0;entryX=0.5;entryY=1;entryDx=0;entryDy=0;" edge="1" parent="WIyWlLk6GJQsqaUBKTNV-1" source="0BW1OnPK2yhxdBp5YWeg-27" target="WIyWlLk6GJQsqaUBKTNV-3">
          <mxGeometry relative="1" as="geometry">
            <mxPoint x="150" y="320" as="sourcePoint" />
          </mxGeometry>
        </mxCell>
        <mxCell id="0BW1OnPK2yhxdBp5YWeg-22" style="edgeStyle=orthogonalEdgeStyle;curved=1;rounded=0;orthogonalLoop=1;jettySize=auto;html=1;exitX=1;exitY=0.5;exitDx=0;exitDy=0;entryX=0.5;entryY=1;entryDx=0;entryDy=0;endArrow=none;endFill=0;" edge="1" parent="WIyWlLk6GJQsqaUBKTNV-1" source="0BW1OnPK2yhxdBp5YWeg-6" target="0BW1OnPK2yhxdBp5YWeg-1">
          <mxGeometry relative="1" as="geometry" />
        </mxCell>
        <mxCell id="0BW1OnPK2yhxdBp5YWeg-6" value="&lt;font style=&quot;font-size: 14px&quot;&gt;Validation&lt;/font&gt;" style="text;html=1;strokeColor=#6c8ebf;fillColor=#dae8fc;align=center;verticalAlign=middle;whiteSpace=wrap;rounded=0;" vertex="1" parent="WIyWlLk6GJQsqaUBKTNV-1">
          <mxGeometry x="245" y="235" width="70" height="20" as="geometry" />
        </mxCell>
        <mxCell id="0BW1OnPK2yhxdBp5YWeg-7" value="&lt;font style=&quot;font-size: 14px&quot;&gt;Verification&lt;/font&gt;" style="text;html=1;align=center;verticalAlign=middle;whiteSpace=wrap;rounded=0;fillColor=#dae8fc;strokeColor=#6c8ebf;" vertex="1" parent="WIyWlLk6GJQsqaUBKTNV-1">
          <mxGeometry x="439" y="275" width="70" height="20" as="geometry" />
        </mxCell>
        <mxCell id="0BW1OnPK2yhxdBp5YWeg-26" value="&lt;span style=&quot;font-size: 14px&quot;&gt;Data analysis&lt;/span&gt;" style="strokeWidth=2;html=1;shape=mxgraph.flowchart.multi-document;whiteSpace=wrap;fillColor=#fff2cc;strokeColor=#d6b656;" vertex="1" parent="WIyWlLk6GJQsqaUBKTNV-1">
          <mxGeometry x="216" y="410" width="124" height="60" as="geometry" />
        </mxCell>
        <mxCell id="0BW1OnPK2yhxdBp5YWeg-27" value="&lt;font style=&quot;font-size: 14px&quot;&gt;Generation&amp;nbsp;&lt;br&gt;of&amp;nbsp;&lt;br&gt;insights&lt;/font&gt;" style="verticalLabelPosition=middle;verticalAlign=middle;html=1;shape=trapezoid;perimeter=trapezoidPerimeter;whiteSpace=wrap;size=0.23;arcSize=10;flipV=1;labelPosition=center;align=center;fillColor=#fff2cc;strokeColor=#d6b656;" vertex="1" parent="WIyWlLk6GJQsqaUBKTNV-1">
          <mxGeometry x="100" y="310" width="100" height="60" as="geometry" />
        </mxCell>
        <mxCell id="0BW1OnPK2yhxdBp5YWeg-35" style="edgeStyle=orthogonalEdgeStyle;curved=1;rounded=0;orthogonalLoop=1;jettySize=auto;html=1;exitX=0;exitY=0.5;exitDx=0;exitDy=0;exitPerimeter=0;entryX=0.944;entryY=0.5;entryDx=0;entryDy=0;entryPerimeter=0;endArrow=classic;endFill=1;startArrow=none;startFill=0;" edge="1" parent="WIyWlLk6GJQsqaUBKTNV-1" source="0BW1OnPK2yhxdBp5YWeg-30" target="0BW1OnPK2yhxdBp5YWeg-26">
          <mxGeometry relative="1" as="geometry" />
        </mxCell>
        <mxCell id="0BW1OnPK2yhxdBp5YWeg-30" value="&lt;div style=&quot;text-align: left ; font-size: 14px&quot;&gt;&lt;font style=&quot;font-size: 14px&quot;&gt;&lt;b&gt;1. &lt;/b&gt;Program execution&lt;/font&gt;&lt;/div&gt;&lt;div style=&quot;text-align: left ; font-size: 14px&quot;&gt;&lt;font style=&quot;font-size: 14px&quot;&gt;&lt;b&gt;2. &lt;/b&gt;Outputs management&lt;/font&gt;&lt;/div&gt;" style="strokeWidth=2;html=1;shape=mxgraph.flowchart.multi-document;whiteSpace=wrap;fillColor=#fff2cc;strokeColor=#d6b656;" vertex="1" parent="WIyWlLk6GJQsqaUBKTNV-1">
          <mxGeometry x="396" y="407.5" width="213" height="65" as="geometry" />
        </mxCell>
      </root>
    </mxGraphModel>
  </diagram>
</mxfile>
